<?xml version="1.0" standalone="no"?>
<!DOCTYPE svg PUBLIC "-//W3C//DTD SVG 20010904//EN"
 "http://www.w3.org/TR/2001/REC-SVG-20010904/DTD/svg10.dtd">
<svg version="1.0" xmlns="http://www.w3.org/2000/svg"
 width="300.000000pt" height="300.000000pt" viewBox="0 0 300.000000 300.000000"
 preserveAspectRatio="xMidYMid meet">
<metadata>
Created by potrace 1.14, written by Peter Selinger 2001-2017
</metadata>
<g transform="translate(0.000000,300.000000) scale(0.100000,-0.100000)"
fill="#000000" stroke="none">
<path d="M1703 2487 c-70 -72 -88 -118 -88 -222 0 -84 2 -94 36 -155 23 -43
52 -77 82 -100 l47 -35 0 -375 c0 -206 -5 -415 -10 -465 -19 -167 -86 -260
-207 -285 -146 -31 -266 41 -315 190 -21 63 -22 84 -25 580 -4 462 -6 516 -20
528 -23 17 -243 17 -267 -1 -16 -12 -17 -48 -13 -557 3 -485 5 -552 21 -605
61 -206 183 -328 376 -376 79 -20 279 -17 360 4 195 52 314 175 372 384 21 74
22 103 26 529 l3 451 53 55 c63 65 86 123 86 218 0 94 -22 151 -87 221 -30 32
-59 59 -64 59 -5 0 -9 -56 -9 -124 l0 -124 -63 -41 c-35 -22 -69 -41 -76 -41
-7 0 -44 17 -81 37 l-67 37 -7 74 c-3 41 -6 97 -6 123 0 26 -4 50 -8 53 -5 3
-27 -14 -49 -37z m-595 -459 c22 -22 14 -66 -14 -85 -24 -15 -29 -15 -53 -2
-51 28 -35 99 22 99 18 0 38 -5 45 -12z"/>
</g>
</svg>
