<?xml version="1.0" standalone="no"?>
<!DOCTYPE svg PUBLIC "-//W3C//DTD SVG 20010904//EN"
 "http://www.w3.org/TR/2001/REC-SVG-20010904/DTD/svg10.dtd">
<svg version="1.0" xmlns="http://www.w3.org/2000/svg"
 width="1200.000000pt" height="1200.000000pt" viewBox="0 0 1200.000000 1200.000000"
 preserveAspectRatio="xMidYMid meet">
<metadata>
Created by potrace 1.11, written by Peter Selinger 2001-2013
</metadata>
<g transform="translate(0.000000,1200.000000) scale(0.100000,-0.100000)"
fill="#000000" stroke="none">
<path d="M8967 9024 c-1 -1 -47 -4 -102 -8 -55 -3 -109 -8 -120 -10 -11 -2
-42 -7 -70 -10 -274 -36 -614 -159 -875 -318 -36 -21 -74 -44 -85 -51 -11 -7
-22 -14 -25 -17 -3 -3 -30 -23 -60 -44 -168 -119 -351 -295 -498 -482 -120
-151 -291 -460 -343 -619 -7 -22 -16 -44 -20 -50 -22 -33 -100 -359 -113 -475
-4 -30 -9 -77 -13 -105 -9 -77 -9 -362 0 -440 7 -59 24 -171 44 -288 9 -56 64
-241 100 -336 70 -188 186 -406 295 -556 333 -455 818 -790 1342 -925 121 -31
249 -55 361 -67 137 -15 543 -7 615 12 8 3 33 7 55 11 58 8 275 60 310 74 17
7 37 13 45 15 33 7 210 80 295 122 283 140 511 316 755 583 31 34 183 236 207
275 110 183 176 315 229 463 32 85 70 208 79 252 2 8 8 33 13 55 6 22 13 54
15 70 3 17 10 59 15 95 21 128 26 197 26 355 1 174 -7 273 -29 405 -33 190
-60 286 -146 520 -26 70 -158 319 -214 405 -150 227 -355 445 -575 611 -266
201 -648 373 -953 428 -120 22 -148 26 -192 31 -122 13 -361 25 -368 19z"/>
<path d="M1528 6335 c-2 -2 -79 -6 -173 -10 -93 -3 -186 -8 -205 -10 -19 -2
-80 -6 -134 -10 -55 -4 -107 -8 -115 -10 -9 -1 -52 -6 -96 -9 -44 -4 -93 -9
-110 -11 -16 -3 -68 -9 -115 -15 -47 -6 -103 -13 -125 -16 -72 -9 -278 -44
-355 -61 -41 -8 -81 -16 -87 -16 -10 0 -13 -386 -13 -1893 l0 -1892 27 -6 c33
-6 93 -15 148 -21 22 -3 47 -7 55 -10 8 -2 40 -7 70 -10 30 -3 80 -10 110 -15
30 -5 80 -11 111 -15 31 -3 65 -7 75 -9 11 -2 53 -7 94 -11 41 -4 82 -8 90
-10 8 -2 44 -6 80 -9 36 -3 81 -8 100 -10 19 -3 69 -8 110 -11 41 -4 82 -9 91
-10 9 -2 56 -6 105 -10 49 -3 103 -8 119 -10 17 -2 62 -7 100 -10 39 -3 88 -7
110 -10 22 -2 76 -7 120 -10 44 -3 103 -7 130 -10 28 -3 102 -7 165 -10 63 -4
131 -8 150 -10 19 -2 70 -6 112 -10 42 -3 86 -8 96 -10 10 -2 43 -6 73 -10
125 -16 321 -75 430 -131 209 -105 239 -311 70 -471 -35 -32 -196 -119 -236
-128 -11 -2 -47 -10 -80 -19 -118 -30 -231 -40 -425 -40 -190 0 -319 16 -448
53 -18 5 -33 10 -35 10 -13 0 -150 53 -202 79 -119 59 -261 172 -332 265 l-22
29 -568 0 c-312 -1 -574 -1 -580 -1 -10 -1 -13 -185 -13 -886 l0 -885 2073 2
2072 3 135 47 c74 26 144 52 155 57 11 5 72 30 135 56 407 166 791 437 1003
705 28 36 54 67 57 70 36 32 173 275 216 381 50 127 95 294 110 414 10 77 11
331 1 415 -58 526 -344 957 -833 1256 -131 81 -396 206 -484 230 -8 2 -40 12
-70 23 -80 28 -273 78 -379 97 -8 2 -46 9 -85 18 -75 16 -333 62 -401 72 -22
3 -51 7 -65 10 -14 2 -43 6 -65 9 -22 3 -49 7 -61 9 -12 2 -45 7 -75 11 -30 3
-61 8 -69 10 -8 2 -40 7 -70 10 -30 3 -66 8 -80 10 -14 2 -50 7 -80 10 -30 3
-66 8 -80 10 -31 5 -108 13 -175 20 -27 3 -66 7 -85 9 -19 3 -64 7 -100 11
-36 3 -81 8 -100 10 -19 3 -63 7 -97 10 -35 3 -91 7 -125 10 -35 3 -79 7 -98
10 -19 2 -66 7 -105 10 -38 4 -83 8 -100 10 -16 2 -66 6 -110 10 -44 4 -90 8
-101 10 -12 2 -61 6 -110 10 -49 3 -100 8 -114 10 -14 3 -51 7 -82 10 -32 3
-82 7 -110 10 -94 8 -169 16 -186 19 -9 2 -37 7 -62 11 -172 26 -322 90 -400
169 -42 43 -48 52 -63 103 -38 127 8 242 128 318 44 28 143 71 185 80 8 2 35
8 60 14 25 5 68 13 95 16 28 4 61 9 75 11 48 10 405 12 470 3 36 -5 82 -11
103 -14 124 -16 296 -72 411 -135 113 -60 222 -154 296 -253 25 -32 42 -47 60
-47 14 -1 720 -1 1570 -2 l1545 0 -3 29 c-5 44 -49 215 -76 292 -143 408 -388
717 -793 998 -96 68 -336 195 -463 246 -25 10 -54 23 -65 28 -46 21 -356 127
-390 133 -5 1 -35 10 -65 19 -30 9 -66 18 -80 21 -14 3 -34 7 -45 10 -54 14
-262 56 -308 61 -29 4 -54 8 -57 10 -3 2 -30 6 -60 10 -30 3 -66 8 -80 10 -27
4 -80 11 -145 19 -22 3 -69 8 -105 11 -36 3 -81 8 -100 10 -39 4 -158 13 -265
20 -38 2 -117 7 -175 11 -101 6 -927 14 -932 9z"/>
</g>
</svg>
