<?xml version="1.0" standalone="no"?>
<!DOCTYPE svg PUBLIC "-//W3C//DTD SVG 20010904//EN"
 "http://www.w3.org/TR/2001/REC-SVG-20010904/DTD/svg10.dtd">
<svg version="1.0" xmlns="http://www.w3.org/2000/svg"
 width="946.000000pt" height="946.000000pt" viewBox="0 0 946.000000 946.000000"
 preserveAspectRatio="xMidYMid meet">
<metadata>
Created by potrace 1.14, written by Peter Selinger 2001-2017
</metadata>
<g transform="translate(0.000000,946.000000) scale(0.100000,-0.100000)"
fill="#000000" stroke="none">
<path d="M5395 9039 c-99 -10 -326 -32 -505 -49 -179 -17 -437 -41 -575 -55
-137 -13 -291 -27 -342 -31 -50 -4 -97 -10 -104 -14 -9 -6 -17 -122 -30 -437
-26 -609 -56 -1353 -75 -1818 -9 -220 -17 -401 -18 -402 -1 -2 -54 -14 -118
-28 -139 -30 -338 -83 -466 -125 -52 -17 -98 -28 -103 -25 -5 3 -188 241 -407
528 -219 287 -553 725 -742 972 -429 562 -450 589 -461 593 -8 3 -51 -20 -459
-250 -102 -58 -277 -157 -390 -220 -476 -269 -565 -319 -573 -327 -4 -4 120
-109 275 -233 771 -617 1243 -999 1246 -1006 1 -5 -153 -96 -342 -203 -190
-107 -346 -198 -347 -204 -2 -5 64 -46 147 -91 258 -140 659 -354 668 -357 5
-2 -42 -55 -105 -118 -436 -436 -702 -949 -775 -1489 -16 -125 -18 -412 -3
-548 30 -278 132 -590 283 -867 249 -456 671 -877 1191 -1188 593 -355 1298
-570 2070 -633 218 -18 693 -15 895 5 820 83 1544 330 2155 736 205 136 339
247 530 439 381 381 619 792 729 1256 76 317 75 704 -1 1025 -111 470 -366
904 -755 1285 l-98 96 419 224 c231 124 418 227 415 229 -2 2 -160 92 -351
200 -191 108 -347 201 -347 206 1 6 343 285 762 620 418 336 761 612 761 615
1 3 -88 55 -196 116 -109 62 -324 183 -478 270 -665 375 -750 422 -757 418 -4
-2 -368 -477 -809 -1055 -621 -813 -805 -1049 -818 -1044 -92 36 -364 113
-531 149 -133 30 -402 76 -442 76 -15 0 -29 4 -33 9 -3 5 105 218 240 472 135
255 245 466 245 469 0 3 -57 0 -127 -6 -731 -72 -738 -72 -730 -51 3 8 19 61
37 118 17 57 53 176 80 264 27 88 92 302 145 475 232 761 304 999 310 1018 3
6 1 11 -3 11 -4 -1 -88 -10 -187 -20z m-2024 -4991 c128 -43 233 -204 278
-423 28 -141 34 -227 21 -348 -27 -270 -130 -481 -265 -543 -179 -84 -350 64
-432 373 -23 86 -26 118 -27 268 0 156 2 179 28 280 75 289 235 448 397 393z
m2847 -3 c113 -34 223 -197 273 -405 20 -81 23 -120 23 -265 -1 -150 -4 -182
-27 -268 -35 -130 -85 -232 -149 -303 -62 -68 -113 -93 -186 -94 -181 -1 -330
232 -362 566 -34 359 108 713 310 775 39 11 62 10 118 -6z m-1182 -2105 c245
-20 447 -60 543 -110 169 -86 17 -183 -369 -237 -159 -22 -674 -25 -852 -5
-163 19 -321 56 -398 94 -71 37 -86 53 -77 89 32 121 638 210 1153 169z"/>
<path d="M3240 3681 c-152 -81 -190 -438 -67 -617 50 -73 122 -101 190 -75 33
13 96 79 103 108 5 17 -10 46 -65 122 -39 55 -71 102 -71 105 0 3 42 7 93 8
l92 3 -1 60 c-1 206 -145 356 -274 286z"/>
<path d="M6099 3679 c-73 -43 -130 -159 -132 -274 l-2 -70 97 -3 97 -3 -76
-104 c-85 -119 -87 -128 -27 -189 147 -151 324 15 324 304 0 253 -139 421
-281 339z"/>
</g>
</svg>
